<svg width="194" height="136" viewBox="0 0 194 136" fill="none" xmlns="http://www.w3.org/2000/svg">
<path d="M159.876 132.325V132.489L159.779 132.621L157.66 135.5H164.234H175.821H184.996L183.381 132.825H183.094V132.325V103.111V103.023L183.124 102.94L184.338 99.5867H183.985H183.524H181.511H179.847V99.0867V98.5867H181.511H183.073C183.793 92.651 188.895 87.9705 194.972 87.9705C201.185 87.9705 206.225 92.651 206.942 98.5867H208.504H210.238V99.0867V99.5867H208.504H206.49H206.03H205.678L206.892 102.94L206.922 103.023V103.111V132.325V132.825H206.609L204.69 135.5H214.056H225.226H231.987L230.276 132.578L230.208 132.461V132.325V124.83V102.555V100.336V99.2267V85.6949V84.0283V79.2418V78.6162V78.3721L230.4 78.222L236.191 73.7041H230.708H230.208V73.2041V68.4161V67.0998V65.9885V65.7259H159.876V65.9885V67.0998V68.4161V73.2041V73.7041H159.376H153.957L159.686 78.2236L159.876 78.3738V78.6162V79.2418V84.0283V85.6949V99.2267V100.336V102.555V124.83V132.325Z" fill="#009EE2" stroke="black"/>
<mask id="path-2-inside-1_0_18" fill="white">
<path fill-rule="evenodd" clip-rule="evenodd" d="M157.363 94.4379V102.07V102.695V103.319H156.878V116.086V116.918V121.708V122.539V133.989V135.446V135.999H73.4053V135.446V133.989V122.539V121.708V116.918V116.086V103.318H72.502V102.695V102.069V94.4372V93.397H73.6814V86.2494V68.901V67.7912V52.2487V51.1357V19.2889H72.0171V17.2061H75.3473V14.084H76.5274V13.1142H76.8739L78.1925 10.7547L79.58 8.25585L80.8986 10.7547L82.218 13.1142H82.5652V14.084H102.271V17.2061H105.671V19.2889H103.798V51.1357V52.2487V53.0816H111.985L113.305 43.1568L113.582 40.5212V26.366H111.362V24.6298H113.582V22.7559H115.456V24.6298H117.676V26.366H115.456V40.1739L115.872 43.156L117.19 53.0808H126.419V52.2479V51.1349V19.2881H124.753V17.2054H128.085V14.0832H147.375V13.1134H147.721L149.04 10.7539L150.358 8.25507L151.745 10.7539L152.995 13.1134H153.411V14.0832H155.008V17.2054H158.407V19.2881H156.535V51.1349V52.2479V67.7904V68.9002V86.2486V93.3962H157.366V94.4379H157.363ZM126.416 56.2045H117.118V62.0342L117.673 62.9336L120.865 67.932H126.416V67.792V56.2045ZM111.983 56.2045H103.795V67.792V67.932H108.237L111.36 62.9336L111.983 62.0342V56.2045ZM124.959 81.7391C124.682 76.7431 120.796 72.7888 115.869 72.4423C120.796 72.788 124.682 76.8127 124.959 81.7391ZM78.6782 68.6257H98.8007V67.7928V53.36H78.6782V67.7928V68.6257ZM85.8938 55.7892C85.2009 55.7892 84.576 56.2045 84.576 56.6886V67.0287H87.2124V56.6886C87.2116 56.2045 86.6571 55.7892 85.8938 55.7892ZM91.0979 55.7892C90.4041 55.7892 89.7792 56.2045 89.7792 56.6886V67.0287H92.4157V56.6886C92.4157 56.2045 91.8612 55.7892 91.0979 55.7892ZM82.9101 73.6905H80.2041V70.9845H82.9101V73.6905ZM97.1348 73.6905H94.36V70.9845H97.1348V73.6905ZM138.629 55.7892C137.935 55.7892 137.311 56.2045 137.311 56.6886V67.0287H139.948V56.6886C139.947 56.2045 139.391 55.7892 138.629 55.7892ZM143.834 55.7892C143.138 55.7892 142.584 56.2045 142.584 56.6886V67.0287H145.152V56.6886C145.152 56.2045 144.597 55.7892 143.834 55.7892ZM135.646 73.6905H132.938V70.9845H135.646V73.6905ZM149.871 73.6905H147.164V70.9845H149.871V73.6905ZM78.4686 133.989H80.3417V115.67C80.3417 110.05 88.5991 105.47 88.5991 105.47C88.5991 105.47 96.8572 110.05 96.8572 115.67V133.989H99.5632V122.539V121.708V116.918V116.086V103.318H78.4686V116.085V116.918V121.707V122.539V133.989ZM104.629 133.989H106.779V115.67C106.779 110.05 115.037 105.47 115.037 105.47C115.037 105.47 123.294 110.05 123.294 115.67V133.989H125.654V122.539V121.708V116.918V116.086V103.318H104.629V116.085V116.918V121.707V122.539V133.989ZM130.788 133.989H133.147V115.67C133.147 110.05 141.404 105.47 141.404 105.47C141.404 105.47 149.662 110.05 149.662 115.67V133.989H151.743V122.539V121.708V116.918V116.086V103.318H130.788V116.085V116.918V121.707V122.539L130.788 133.989Z"/>
</mask>
<path fill-rule="evenodd" clip-rule="evenodd" d="M157.363 94.4379V102.07V102.695V103.319H156.878V116.086V116.918V121.708V122.539V133.989V135.446V135.999H73.4053V135.446V133.989V122.539V121.708V116.918V116.086V103.318H72.502V102.695V102.069V94.4372V93.397H73.6814V86.2494V68.901V67.7912V52.2487V51.1357V19.2889H72.0171V17.2061H75.3473V14.084H76.5274V13.1142H76.8739L78.1925 10.7547L79.58 8.25585L80.8986 10.7547L82.218 13.1142H82.5652V14.084H102.271V17.2061H105.671V19.2889H103.798V51.1357V52.2487V53.0816H111.985L113.305 43.1568L113.582 40.5212V26.366H111.362V24.6298H113.582V22.7559H115.456V24.6298H117.676V26.366H115.456V40.1739L115.872 43.156L117.19 53.0808H126.419V52.2479V51.1349V19.2881H124.753V17.2054H128.085V14.0832H147.375V13.1134H147.721L149.04 10.7539L150.358 8.25507L151.745 10.7539L152.995 13.1134H153.411V14.0832H155.008V17.2054H158.407V19.2881H156.535V51.1349V52.2479V67.7904V68.9002V86.2486V93.3962H157.366V94.4379H157.363ZM126.416 56.2045H117.118V62.0342L117.673 62.9336L120.865 67.932H126.416V67.792V56.2045ZM111.983 56.2045H103.795V67.792V67.932H108.237L111.36 62.9336L111.983 62.0342V56.2045ZM124.959 81.7391C124.682 76.7431 120.796 72.7888 115.869 72.4423C120.796 72.788 124.682 76.8127 124.959 81.7391ZM78.6782 68.6257H98.8007V67.7928V53.36H78.6782V67.7928V68.6257ZM85.8938 55.7892C85.2009 55.7892 84.576 56.2045 84.576 56.6886V67.0287H87.2124V56.6886C87.2116 56.2045 86.6571 55.7892 85.8938 55.7892ZM91.0979 55.7892C90.4041 55.7892 89.7792 56.2045 89.7792 56.6886V67.0287H92.4157V56.6886C92.4157 56.2045 91.8612 55.7892 91.0979 55.7892ZM82.9101 73.6905H80.2041V70.9845H82.9101V73.6905ZM97.1348 73.6905H94.36V70.9845H97.1348V73.6905ZM138.629 55.7892C137.935 55.7892 137.311 56.2045 137.311 56.6886V67.0287H139.948V56.6886C139.947 56.2045 139.391 55.7892 138.629 55.7892ZM143.834 55.7892C143.138 55.7892 142.584 56.2045 142.584 56.6886V67.0287H145.152V56.6886C145.152 56.2045 144.597 55.7892 143.834 55.7892ZM135.646 73.6905H132.938V70.9845H135.646V73.6905ZM149.871 73.6905H147.164V70.9845H149.871V73.6905ZM78.4686 133.989H80.3417V115.67C80.3417 110.05 88.5991 105.47 88.5991 105.47C88.5991 105.47 96.8572 110.05 96.8572 115.67V133.989H99.5632V122.539V121.708V116.918V116.086V103.318H78.4686V116.085V116.918V121.707V122.539V133.989ZM104.629 133.989H106.779V115.67C106.779 110.05 115.037 105.47 115.037 105.47C115.037 105.47 123.294 110.05 123.294 115.67V133.989H125.654V122.539V121.708V116.918V116.086V103.318H104.629V116.085V116.918V121.707V122.539V133.989ZM130.788 133.989H133.147V115.67C133.147 110.05 141.404 105.47 141.404 105.47C141.404 105.47 149.662 110.05 149.662 115.67V133.989H151.743V122.539V121.708V116.918V116.086V103.318H130.788V116.085V116.918V121.707V122.539L130.788 133.989Z" fill="#009EE2"/>
<path d="M114.376 72.9412C112.41 73.0727 110.634 73.8587 109.177 75.0477L108.545 74.273C110.143 72.9686 112.113 72.0904 114.309 71.9434L114.376 72.9412ZM157.363 94.4379H156.363V93.4379H157.363V94.4379ZM157.363 103.319H158.363V104.319H157.363V103.319ZM156.878 103.319H155.878V102.319H156.878V103.319ZM156.878 135.999H157.878V136.999H156.878V135.999ZM73.4053 135.999V136.999H72.4053V135.999H73.4053ZM73.4053 103.318V102.318H74.4053V103.318H73.4053ZM72.502 103.318V104.318H71.502V103.318H72.502ZM72.502 93.397H71.502V92.397H72.502V93.397ZM73.6814 93.397H74.6814V94.397H73.6814V93.397ZM73.6814 19.2889V18.2889H74.6814V19.2889H73.6814ZM72.0171 19.2889V20.2889H71.0171V19.2889H72.0171ZM72.0171 17.2061H71.0171V16.2061H72.0171V17.2061ZM75.3473 17.2061H76.3473V18.2061H75.3473V17.2061ZM75.3473 14.084H74.3473V13.084H75.3473V14.084ZM76.5274 14.084H77.5274V15.084H76.5274V14.084ZM76.5274 13.1142H75.5274V12.1142H76.5274V13.1142ZM76.8739 13.1142L77.7469 13.6021L77.4606 14.1142H76.8739V13.1142ZM78.1925 10.7547L79.0668 11.2401L79.0655 11.2425L78.1925 10.7547ZM79.58 8.25585L78.7057 7.77042L79.6023 6.15556L80.4644 7.78915L79.58 8.25585ZM80.8986 10.7547L80.0258 11.2427L80.0198 11.2321L80.0142 11.2214L80.8986 10.7547ZM82.218 13.1142V14.1142H81.6314L81.3451 13.6023L82.218 13.1142ZM82.5652 13.1142V12.1142H83.5652V13.1142H82.5652ZM82.5652 14.084V15.084H81.5652V14.084H82.5652ZM102.271 14.084V13.084H103.271V14.084H102.271ZM102.271 17.2061V18.2061H101.271V17.2061H102.271ZM105.671 17.2061V16.2061H106.671V17.2061H105.671ZM105.671 19.2889H106.671V20.2889H105.671V19.2889ZM103.798 19.2889H102.798V18.2889H103.798V19.2889ZM103.798 53.0816V54.0816H102.798V53.0816H103.798ZM111.985 53.0816L112.977 53.2134L112.861 54.0816H111.985V53.0816ZM113.305 43.1568L114.299 43.2616L114.298 43.2751L114.296 43.2886L113.305 43.1568ZM113.582 40.5212H114.582V40.5737L114.577 40.6259L113.582 40.5212ZM113.582 26.366V25.366H114.582V26.366H113.582ZM111.362 26.366V27.366H110.362V26.366H111.362ZM111.362 24.6298H110.362V23.6298H111.362V24.6298ZM113.582 24.6298H114.582V25.6298H113.582V24.6298ZM113.582 22.7559H112.582V21.7559H113.582V22.7559ZM115.456 22.7559V21.7559H116.456V22.7559H115.456ZM115.456 24.6298V25.6298H114.456V24.6298H115.456ZM117.676 24.6298V23.6298H118.676V24.6298H117.676ZM117.676 26.366H118.676V27.366H117.676V26.366ZM115.456 26.366H114.456V25.366H115.456V26.366ZM115.456 40.1739L114.466 40.3121L114.456 40.2433V40.1739H115.456ZM115.872 43.156L116.863 43.0178L116.864 43.0244L115.872 43.156ZM117.19 53.0808V54.0808H116.314L116.199 53.2124L117.19 53.0808ZM126.419 53.0808H127.419V54.0808H126.419V53.0808ZM126.419 19.2881V18.2881H127.419V19.2881H126.419ZM124.753 19.2881V20.2881H123.753V19.2881H124.753ZM124.753 17.2054H123.753V16.2054H124.753V17.2054ZM128.085 17.2054H129.085V18.2054H128.085V17.2054ZM128.085 14.0832H127.085V13.0832H128.085V14.0832ZM147.375 14.0832H148.375V15.0832H147.375V14.0832ZM147.375 13.1134H146.375V12.1134H147.375V13.1134ZM147.721 13.1134L148.594 13.6013L148.308 14.1134H147.721V13.1134ZM149.04 10.7539L149.925 11.2203L149.919 11.2311L149.913 11.2417L149.04 10.7539ZM150.358 8.25507L149.473 7.78858L150.335 6.15429L151.232 7.76963L150.358 8.25507ZM151.745 10.7539L152.62 10.2684L152.624 10.2771L152.629 10.2858L151.745 10.7539ZM152.995 13.1134V14.1134H152.393L152.111 13.5815L152.995 13.1134ZM153.411 13.1134V12.1134H154.411V13.1134H153.411ZM153.411 14.0832V15.0832H152.411V14.0832H153.411ZM155.008 14.0832V13.0832H156.008V14.0832H155.008ZM155.008 17.2054V18.2054H154.008V17.2054H155.008ZM158.407 17.2054V16.2054H159.407V17.2054H158.407ZM158.407 19.2881H159.407V20.2881H158.407V19.2881ZM156.535 19.2881H155.535V18.2881H156.535V19.2881ZM156.535 93.3962V94.3962H155.535V93.3962H156.535ZM157.366 93.3962V92.3962H158.366V93.3962H157.366ZM157.366 94.4379H158.366V95.4379H157.366V94.4379ZM126.416 56.2045V55.2045H127.416V56.2045H126.416ZM117.118 56.2045H116.118V55.2045H117.118V56.2045ZM117.118 62.0342L116.267 62.5595L116.118 62.318V62.0342H117.118ZM117.673 62.9336L116.831 63.4718L116.827 63.4654L116.823 63.4589L117.673 62.9336ZM120.865 67.932V68.932H120.317L120.022 68.4702L120.865 67.932ZM126.416 67.932H127.416V68.932H126.416V67.932ZM111.983 56.2045V55.2045H112.983V56.2045H111.983ZM103.795 56.2045H102.795V55.2045H103.795V56.2045ZM103.795 67.932V68.932H102.795V67.932H103.795ZM108.237 67.932L109.085 68.4619L108.791 68.932H108.237V67.932ZM111.36 62.9336L110.511 62.4037L110.524 62.3836L110.538 62.364L111.36 62.9336ZM111.983 62.0342H112.983V62.3469L112.805 62.6038L111.983 62.0342ZM124.959 81.7391L125.957 81.6837L123.96 81.7952L124.959 81.7391ZM115.869 72.4423L115.799 73.4399L115.939 71.4448L115.869 72.4423ZM78.6782 68.6257V69.6257H77.6782V68.6257H78.6782ZM98.8007 68.6257H99.8007V69.6257H98.8007V68.6257ZM98.8007 53.36V52.36H99.8007V53.36H98.8007ZM78.6782 53.36H77.6782V52.36H78.6782V53.36ZM84.576 67.0287V68.0287H83.576V67.0287H84.576ZM87.2124 67.0287H88.2124V68.0287H87.2124V67.0287ZM87.2124 56.6886L88.2124 56.687V56.6886H87.2124ZM89.7792 67.0287V68.0287H88.7792V67.0287H89.7792ZM92.4157 67.0287H93.4157V68.0287H92.4157V67.0287ZM82.9101 73.6905H83.9101V74.6905H82.9101V73.6905ZM80.2041 73.6905V74.6905H79.2041V73.6905H80.2041ZM80.2041 70.9845H79.2041V69.9845H80.2041V70.9845ZM82.9101 70.9845V69.9845H83.9101V70.9845H82.9101ZM97.1348 73.6905H98.1348V74.6905H97.1348V73.6905ZM94.36 73.6905V74.6905H93.36V73.6905H94.36ZM94.36 70.9845H93.36V69.9845H94.36V70.9845ZM97.1348 70.9845V69.9845H98.1348V70.9845H97.1348ZM137.311 67.0287V68.0287H136.311V67.0287H137.311ZM139.948 67.0287H140.948V68.0287H139.948V67.0287ZM139.948 56.6886L140.948 56.687V56.6886H139.948ZM142.584 67.0287V68.0287H141.584V67.0287H142.584ZM145.152 67.0287H146.152V68.0287H145.152V67.0287ZM135.646 73.6905H136.646V74.6905H135.646V73.6905ZM132.938 73.6905V74.6905H131.938V73.6905H132.938ZM132.938 70.9845H131.938V69.9845H132.938V70.9845ZM135.646 70.9845V69.9845H136.646V70.9845H135.646ZM149.871 73.6905H150.871V74.6905H149.871V73.6905ZM147.164 73.6905V74.6905H146.164V73.6905H147.164ZM147.164 70.9845H146.164V69.9845H147.164V70.9845ZM149.871 70.9845V69.9845H150.871V70.9845H149.871ZM78.4686 133.989V134.989H77.4686V133.989H78.4686ZM80.3417 133.989H81.3417V134.989H80.3417V133.989ZM88.5991 105.47L88.114 104.596L88.599 104.327L89.0841 104.596L88.5991 105.47ZM96.8572 133.989V134.989H95.8572V133.989H96.8572ZM99.5632 133.989H100.563V134.989H99.5632V133.989ZM99.5632 103.318V102.318H100.563V103.318H99.5632ZM78.4686 103.318H77.4686V102.318H78.4686V103.318ZM104.629 133.989V134.989H103.629V133.989H104.629ZM106.779 133.989H107.779V134.989H106.779V133.989ZM115.037 105.47L114.552 104.596L115.037 104.327L115.522 104.596L115.037 105.47ZM123.294 133.989V134.989H122.294V133.989H123.294ZM125.654 133.989H126.654V134.989H125.654V133.989ZM125.654 103.318V102.318H126.654V103.318H125.654ZM104.629 103.318H103.629V102.318H104.629V103.318ZM130.788 133.989V134.989H129.788L129.788 133.989L130.788 133.989ZM133.147 133.989H134.147V134.989H133.147V133.989ZM141.404 105.47L140.919 104.596L141.404 104.327L141.89 104.596L141.404 105.47ZM149.662 133.989V134.989H148.662V133.989H149.662ZM151.743 133.989H152.743V134.989H151.743V133.989ZM151.743 103.318V102.318H152.743V103.318H151.743ZM130.788 103.318H129.788V102.318H130.788V103.318ZM130.788 122.539L131.788 122.539L131.788 122.539L130.788 122.539ZM158.363 94.4379V102.07H156.363V94.4379H158.363ZM158.363 102.07V102.695H156.363V102.07H158.363ZM158.363 102.695V103.319H156.363V102.695H158.363ZM157.363 104.319H156.878V102.319H157.363V104.319ZM157.878 103.319V116.086H155.878V103.319H157.878ZM157.878 116.086V116.918H155.878V116.086H157.878ZM157.878 116.918V121.708H155.878V116.918H157.878ZM157.878 121.708V122.539H155.878V121.708H157.878ZM157.878 122.539V133.989H155.878V122.539H157.878ZM157.878 133.989V135.446H155.878V133.989H157.878ZM157.878 135.446V135.999H155.878V135.446H157.878ZM156.878 136.999H73.4053V134.999H156.878V136.999ZM72.4053 135.999V135.446H74.4053V135.999H72.4053ZM72.4053 135.446V133.989H74.4053V135.446H72.4053ZM72.4053 133.989V122.539H74.4053V133.989H72.4053ZM72.4053 122.539V121.708H74.4053V122.539H72.4053ZM72.4053 121.708V116.918H74.4053V121.708H72.4053ZM72.4053 116.918V116.086H74.4053V116.918H72.4053ZM72.4053 116.086V103.318H74.4053V116.086H72.4053ZM73.4053 104.318H72.502V102.318H73.4053V104.318ZM71.502 103.318V102.695H73.502V103.318H71.502ZM71.502 102.695V102.069H73.502V102.695H71.502ZM71.502 102.069V94.4372H73.502V102.069H71.502ZM71.502 94.4372V93.397H73.502V94.4372H71.502ZM72.502 92.397H73.6814V94.397H72.502V92.397ZM72.6814 93.397V86.2494H74.6814V93.397H72.6814ZM72.6814 86.2494V68.901H74.6814V86.2494H72.6814ZM72.6814 68.901V67.7912H74.6814V68.901H72.6814ZM72.6814 67.7912V52.2487H74.6814V67.7912H72.6814ZM72.6814 52.2487V51.1357H74.6814V52.2487H72.6814ZM72.6814 51.1357V19.2889H74.6814V51.1357H72.6814ZM73.6814 20.2889H72.0171V18.2889H73.6814V20.2889ZM71.0171 19.2889V17.2061H73.0171V19.2889H71.0171ZM72.0171 16.2061H75.3473V18.2061H72.0171V16.2061ZM74.3473 17.2061V14.084H76.3473V17.2061H74.3473ZM75.3473 13.084H76.5274V15.084H75.3473V13.084ZM75.5274 14.084V13.1142H77.5274V14.084H75.5274ZM76.5274 12.1142H76.8739V14.1142H76.5274V12.1142ZM76.001 12.6264L77.3196 10.2668L79.0655 11.2425L77.7469 13.6021L76.001 12.6264ZM77.3182 10.2692L78.7057 7.77042L80.4542 8.74129L79.0668 11.2401L77.3182 10.2692ZM80.4644 7.78915L81.783 10.2879L80.0142 11.2214L78.6955 8.72256L80.4644 7.78915ZM81.7714 10.2666L83.0908 12.6262L81.3451 13.6023L80.0258 11.2427L81.7714 10.2666ZM82.218 12.1142H82.5652V14.1142H82.218V12.1142ZM83.5652 13.1142V14.084H81.5652V13.1142H83.5652ZM82.5652 13.084H102.271V15.084H82.5652V13.084ZM103.271 14.084V17.2061H101.271V14.084H103.271ZM102.271 16.2061H105.671V18.2061H102.271V16.2061ZM106.671 17.2061V19.2889H104.671V17.2061H106.671ZM105.671 20.2889H103.798V18.2889H105.671V20.2889ZM104.798 19.2889V51.1357H102.798V19.2889H104.798ZM104.798 51.1357V52.2487H102.798V51.1357H104.798ZM104.798 52.2487V53.0816H102.798V52.2487H104.798ZM103.798 52.0816H111.985V54.0816H103.798V52.0816ZM110.994 52.9498L112.313 43.025L114.296 43.2886L112.977 53.2134L110.994 52.9498ZM112.31 43.052L112.588 40.4164L114.577 40.6259L114.299 43.2616L112.31 43.052ZM112.582 40.5212V26.366H114.582V40.5212H112.582ZM113.582 27.366H111.362V25.366H113.582V27.366ZM110.362 26.366V24.6298H112.362V26.366H110.362ZM111.362 23.6298H113.582V25.6298H111.362V23.6298ZM112.582 24.6298V22.7559H114.582V24.6298H112.582ZM113.582 21.7559H115.456V23.7559H113.582V21.7559ZM116.456 22.7559V24.6298H114.456V22.7559H116.456ZM115.456 23.6298H117.676V25.6298H115.456V23.6298ZM118.676 24.6298V26.366H116.676V24.6298H118.676ZM117.676 27.366H115.456V25.366H117.676V27.366ZM116.456 26.366V40.1739H114.456V26.366H116.456ZM116.447 40.0357L116.863 43.0178L114.882 43.2942L114.466 40.3121L116.447 40.0357ZM116.864 43.0244L118.181 52.9492L116.199 53.2124L114.881 43.2876L116.864 43.0244ZM117.19 52.0808H126.419V54.0808H117.19V52.0808ZM125.419 53.0808V52.2479H127.419V53.0808H125.419ZM125.419 52.2479V51.1349H127.419V52.2479H125.419ZM125.419 51.1349V19.2881H127.419V51.1349H125.419ZM126.419 20.2881H124.753V18.2881H126.419V20.2881ZM123.753 19.2881V17.2054H125.753V19.2881H123.753ZM124.753 16.2054H128.085V18.2054H124.753V16.2054ZM127.085 17.2054V14.0832H129.085V17.2054H127.085ZM128.085 13.0832H147.375V15.0832H128.085V13.0832ZM146.375 14.0832V13.1134H148.375V14.0832H146.375ZM147.375 12.1134H147.721V14.1134H147.375V12.1134ZM146.849 12.6256L148.167 10.266L149.913 11.2417L148.594 13.6013L146.849 12.6256ZM148.156 10.2874L149.473 7.78858L151.242 8.72155L149.925 11.2203L148.156 10.2874ZM151.232 7.76963L152.62 10.2684L150.871 11.2393L149.484 8.7405L151.232 7.76963ZM152.629 10.2858L153.879 12.6454L152.111 13.5815L150.862 11.2219L152.629 10.2858ZM152.995 12.1134H153.411V14.1134H152.995V12.1134ZM154.411 13.1134V14.0832H152.411V13.1134H154.411ZM153.411 13.0832H155.008V15.0832H153.411V13.0832ZM156.008 14.0832V17.2054H154.008V14.0832H156.008ZM155.008 16.2054H158.407V18.2054H155.008V16.2054ZM159.407 17.2054V19.2881H157.407V17.2054H159.407ZM158.407 20.2881H156.535V18.2881H158.407V20.2881ZM157.535 19.2881V51.1349H155.535V19.2881H157.535ZM157.535 51.1349V52.2479H155.535V51.1349H157.535ZM157.535 52.2479V67.7904H155.535V52.2479H157.535ZM157.535 67.7904V68.9002H155.535V67.7904H157.535ZM157.535 68.9002V86.2486H155.535V68.9002H157.535ZM157.535 86.2486V93.3962H155.535V86.2486H157.535ZM156.535 92.3962H157.366V94.3962H156.535V92.3962ZM158.366 93.3962V94.4379H156.366V93.3962H158.366ZM157.366 95.4379H157.363V93.4379H157.366V95.4379ZM126.416 57.2045H117.118V55.2045H126.416V57.2045ZM118.118 56.2045V62.0342H116.118V56.2045H118.118ZM117.969 61.5089L118.524 62.4083L116.823 63.4589L116.267 62.5595L117.969 61.5089ZM118.516 62.3954L121.708 67.3938L120.022 68.4702L116.831 63.4718L118.516 62.3954ZM120.865 66.932H126.416V68.932H120.865V66.932ZM125.416 67.932V67.792H127.416V67.932H125.416ZM125.416 67.792V56.2045H127.416V67.792H125.416ZM111.983 57.2045H103.795V55.2045H111.983V57.2045ZM104.795 56.2045V67.792H102.795V56.2045H104.795ZM104.795 67.792V67.932H102.795V67.792H104.795ZM103.795 66.932H108.237V68.932H103.795V66.932ZM107.389 67.4021L110.511 62.4037L112.208 63.4635L109.085 68.4619L107.389 67.4021ZM110.538 62.364L111.161 61.4646L112.805 62.6038L112.181 63.5032L110.538 62.364ZM110.983 62.0342V56.2045H112.983V62.0342H110.983ZM123.96 81.7944C123.711 77.296 120.217 73.7506 115.799 73.4399L115.939 71.4448C121.374 71.827 125.653 76.1901 125.957 81.6837L123.96 81.7944ZM115.939 71.4448C121.379 71.8265 125.653 76.2647 125.957 81.683L123.96 81.7952C123.711 77.3606 120.212 73.7495 115.799 73.4399L115.939 71.4448ZM78.6782 67.6257H98.8007V69.6257H78.6782V67.6257ZM97.8007 68.6257V67.7928H99.8007V68.6257H97.8007ZM97.8007 67.7928V53.36H99.8007V67.7928H97.8007ZM98.8007 54.36H78.6782V52.36H98.8007V54.36ZM79.6782 53.36V67.7928H77.6782V53.36H79.6782ZM79.6782 67.7928V68.6257H77.6782V67.7928H79.6782ZM85.8938 56.7892C85.736 56.7892 85.6039 56.8392 85.5355 56.8855C85.5035 56.9072 85.507 56.9133 85.5234 56.888C85.5421 56.8592 85.576 56.7898 85.576 56.6886H83.576C83.576 55.9936 84.0151 55.4995 84.4146 55.2292C84.8318 54.9468 85.3586 54.7892 85.8938 54.7892V56.7892ZM85.576 56.6886V67.0287H83.576V56.6886H85.576ZM84.576 66.0287H87.2124V68.0287H84.576V66.0287ZM86.2124 67.0287V56.6886H88.2124V67.0287H86.2124ZM86.2124 56.6902C86.2127 56.8569 86.309 56.907 86.2646 56.8759C86.2231 56.8467 86.1018 56.7892 85.8938 56.7892V54.7892C86.4491 54.7892 86.9868 54.9393 87.4135 55.2388C87.8374 55.5364 88.2114 56.0362 88.2124 56.687L86.2124 56.6902ZM91.0979 56.7892C90.9395 56.7892 90.8072 56.8393 90.7387 56.8856C90.7067 56.9073 90.7102 56.9134 90.7266 56.8881C90.7454 56.8593 90.7792 56.7898 90.7792 56.6886H88.7792C88.7792 55.9936 89.2184 55.4994 89.6181 55.2291C90.0355 54.9467 90.5625 54.7892 91.0979 54.7892V56.7892ZM90.7792 56.6886V67.0287H88.7792V56.6886H90.7792ZM89.7792 66.0287H92.4157V68.0287H89.7792V66.0287ZM91.4157 67.0287V56.6886H93.4157V67.0287H91.4157ZM91.4157 56.6886C91.4157 56.856 91.5125 56.9068 91.4684 56.8758C91.4271 56.8468 91.3059 56.7892 91.0979 56.7892V54.7892C91.6531 54.7892 92.1909 54.9393 92.6177 55.239C93.0416 55.5366 93.4157 56.0371 93.4157 56.6886H91.4157ZM82.9101 74.6905H80.2041V72.6905H82.9101V74.6905ZM79.2041 73.6905V70.9845H81.2041V73.6905H79.2041ZM80.2041 69.9845H82.9101V71.9845H80.2041V69.9845ZM83.9101 70.9845V73.6905H81.9101V70.9845H83.9101ZM97.1348 74.6905H94.36V72.6905H97.1348V74.6905ZM93.36 73.6905V70.9845H95.36V73.6905H93.36ZM94.36 69.9845H97.1348V71.9845H94.36V69.9845ZM98.1348 70.9845V73.6905H96.1348V70.9845H98.1348ZM138.629 56.7892C138.471 56.7892 138.339 56.8393 138.27 56.8854C138.239 56.907 138.242 56.913 138.259 56.8877C138.277 56.8588 138.311 56.7895 138.311 56.6886H136.311C136.311 55.9941 136.749 55.4999 137.149 55.2293C137.567 54.9467 138.093 54.7892 138.629 54.7892V56.7892ZM138.311 56.6886V67.0287H136.311V56.6886H138.311ZM137.311 66.0287H139.948V68.0287H137.311V66.0287ZM138.948 67.0287V56.6886H140.948V67.0287H138.948ZM138.948 56.6902C138.949 56.858 139.046 56.908 139 56.8762C138.958 56.8467 138.836 56.7892 138.629 56.7892V54.7892C139.184 54.7892 139.721 54.9394 140.148 55.2385C140.572 55.5354 140.947 56.0351 140.948 56.687L138.948 56.6902ZM143.834 56.7892C143.678 56.7892 143.576 56.837 143.537 56.8656C143.492 56.8981 143.584 56.8512 143.584 56.6886H141.584C141.584 56.0419 141.953 55.5453 142.359 55.2491C142.771 54.949 143.294 54.7892 143.834 54.7892V56.7892ZM143.584 56.6886V67.0287H141.584V56.6886H143.584ZM142.584 66.0287H145.152V68.0287H142.584V66.0287ZM144.152 67.0287V56.6886H146.152V67.0287H144.152ZM144.152 56.6886C144.152 56.856 144.248 56.9068 144.204 56.8758C144.163 56.8468 144.042 56.7892 143.834 56.7892V54.7892C144.389 54.7892 144.927 54.9393 145.353 55.239C145.777 55.5366 146.152 56.0371 146.152 56.6886H144.152ZM135.646 74.6905H132.938V72.6905H135.646V74.6905ZM131.938 73.6905V70.9845H133.938V73.6905H131.938ZM132.938 69.9845H135.646V71.9845H132.938V69.9845ZM136.646 70.9845V73.6905H134.646V70.9845H136.646ZM149.871 74.6905H147.164V72.6905H149.871V74.6905ZM146.164 73.6905V70.9845H148.164V73.6905H146.164ZM147.164 69.9845H149.871V71.9845H147.164V69.9845ZM150.871 70.9845V73.6905H148.871V70.9845H150.871ZM78.4686 132.989H80.3417V134.989H78.4686V132.989ZM79.3417 133.989V115.67H81.3417V133.989H79.3417ZM79.3417 115.67C79.3417 112.399 81.7102 109.591 83.8035 107.718C84.8803 106.754 85.9525 105.977 86.7533 105.442C87.1547 105.174 87.4904 104.965 87.7277 104.822C87.8464 104.75 87.9406 104.695 88.0063 104.657C88.0392 104.638 88.0649 104.623 88.083 104.613C88.0921 104.608 88.0993 104.604 88.1044 104.601C88.107 104.6 88.1091 104.598 88.1107 104.598C88.1115 104.597 88.1122 104.597 88.1128 104.596C88.113 104.596 88.1133 104.596 88.1135 104.596C88.1138 104.596 88.114 104.596 88.5991 105.47C89.0841 106.345 89.0843 106.345 89.0844 106.344C89.0845 106.344 89.0846 106.344 89.0846 106.344C89.0847 106.344 89.0846 106.344 89.0844 106.345C89.084 106.345 89.0831 106.345 89.0817 106.346C89.079 106.348 89.0743 106.35 89.0677 106.354C89.0546 106.361 89.0339 106.373 89.0063 106.389C88.9511 106.421 88.8679 106.47 88.7608 106.534C88.5465 106.663 88.2371 106.856 87.8644 107.105C87.117 107.604 86.1248 108.324 85.1373 109.208C83.1019 111.029 81.3417 113.322 81.3417 115.67H79.3417ZM88.5991 105.47C89.0841 104.596 89.0843 104.596 89.0846 104.596C89.0847 104.596 89.0851 104.596 89.0853 104.596C89.0859 104.597 89.0866 104.597 89.0874 104.597C89.089 104.598 89.0911 104.6 89.0936 104.601C89.0988 104.604 89.106 104.608 89.115 104.613C89.1332 104.623 89.1589 104.638 89.1918 104.657C89.2575 104.695 89.3517 104.75 89.4704 104.822C89.7077 104.965 90.0434 105.174 90.4449 105.442C91.2458 105.977 92.3181 106.754 93.395 107.717C95.4885 109.591 97.8572 112.399 97.8572 115.67H95.8572C95.8572 113.322 94.0969 111.029 92.0613 109.208C91.0736 108.324 90.0814 107.604 89.3339 107.105C88.9612 106.856 88.6517 106.664 88.4374 106.534C88.3303 106.47 88.2471 106.421 88.1918 106.389C88.1642 106.373 88.1436 106.361 88.1305 106.354C88.1239 106.35 88.1192 106.348 88.1164 106.346C88.1151 106.345 88.1142 106.345 88.1138 106.345C88.1136 106.344 88.1135 106.344 88.1135 106.344C88.1136 106.344 88.1137 106.344 88.1137 106.344C88.1139 106.345 88.1141 106.345 88.5991 105.47ZM97.8572 115.67V133.989H95.8572V115.67H97.8572ZM96.8572 132.989H99.5632V134.989H96.8572V132.989ZM98.5632 133.989V122.539H100.563V133.989H98.5632ZM98.5632 122.539V121.708H100.563V122.539H98.5632ZM98.5632 121.708V116.918H100.563V121.708H98.5632ZM98.5632 116.918V116.086H100.563V116.918H98.5632ZM98.5632 116.086V103.318H100.563V116.086H98.5632ZM99.5632 104.318H78.4686V102.318H99.5632V104.318ZM79.4686 103.318V116.085H77.4686V103.318H79.4686ZM79.4686 116.085V116.918H77.4686V116.085H79.4686ZM79.4686 116.918V121.707H77.4686V116.918H79.4686ZM79.4686 121.707V122.539H77.4686V121.707H79.4686ZM79.4686 122.539V133.989H77.4686V122.539H79.4686ZM104.629 132.989H106.779V134.989H104.629V132.989ZM105.779 133.989V115.67H107.779V133.989H105.779ZM105.779 115.67C105.779 112.399 108.148 109.591 110.241 107.717C111.318 106.754 112.39 105.977 113.191 105.442C113.593 105.174 113.928 104.965 114.166 104.822C114.284 104.75 114.379 104.695 114.444 104.657C114.477 104.638 114.503 104.623 114.521 104.613C114.53 104.608 114.537 104.604 114.542 104.601C114.545 104.6 114.547 104.598 114.549 104.597C114.549 104.597 114.55 104.597 114.551 104.596C114.551 104.596 114.551 104.596 114.551 104.596C114.552 104.596 114.552 104.596 115.037 105.47C115.522 106.345 115.522 106.345 115.522 106.344C115.522 106.344 115.522 106.344 115.522 106.344C115.523 106.344 115.522 106.344 115.522 106.345C115.522 106.345 115.521 106.345 115.52 106.346C115.517 106.348 115.512 106.35 115.506 106.354C115.492 106.361 115.472 106.373 115.444 106.389C115.389 106.421 115.306 106.47 115.199 106.534C114.984 106.664 114.675 106.856 114.302 107.105C113.555 107.604 112.562 108.324 111.575 109.208C109.539 111.029 107.779 113.322 107.779 115.67H105.779ZM115.037 105.47C115.522 104.596 115.522 104.596 115.523 104.596C115.523 104.596 115.523 104.596 115.523 104.596C115.524 104.597 115.525 104.597 115.525 104.598C115.527 104.598 115.529 104.6 115.532 104.601C115.537 104.604 115.544 104.608 115.553 104.613C115.571 104.623 115.597 104.638 115.63 104.657C115.695 104.695 115.79 104.75 115.908 104.822C116.146 104.965 116.481 105.174 116.883 105.442C117.684 105.977 118.756 106.754 119.833 107.718C121.926 109.591 124.294 112.399 124.294 115.67H122.294C122.294 113.322 120.534 111.029 118.499 109.208C117.511 108.324 116.519 107.604 115.772 107.105C115.399 106.856 115.09 106.663 114.875 106.534C114.768 106.47 114.685 106.421 114.63 106.389C114.602 106.373 114.581 106.361 114.568 106.354C114.562 106.35 114.557 106.348 114.554 106.346C114.553 106.345 114.552 106.345 114.552 106.345C114.551 106.344 114.551 106.344 114.551 106.344C114.551 106.344 114.552 106.344 114.552 106.344C114.552 106.345 114.552 106.345 115.037 105.47ZM124.294 115.67V133.989H122.294V115.67H124.294ZM123.294 132.989H125.654V134.989H123.294V132.989ZM124.654 133.989V122.539H126.654V133.989H124.654ZM124.654 122.539V121.708H126.654V122.539H124.654ZM124.654 121.708V116.918H126.654V121.708H124.654ZM124.654 116.918V116.086H126.654V116.918H124.654ZM124.654 116.086V103.318H126.654V116.086H124.654ZM125.654 104.318H104.629V102.318H125.654V104.318ZM105.629 103.318V116.085H103.629V103.318H105.629ZM105.629 116.085V116.918H103.629V116.085H105.629ZM105.629 116.918V121.707H103.629V116.918H105.629ZM105.629 121.707V122.539H103.629V121.707H105.629ZM105.629 122.539V133.989H103.629V122.539H105.629ZM130.788 132.989H133.147V134.989H130.788V132.989ZM132.147 133.989V115.67H134.147V133.989H132.147ZM132.147 115.67C132.147 112.399 134.516 109.591 136.609 107.718C137.686 106.754 138.758 105.977 139.559 105.442C139.96 105.174 140.296 104.965 140.533 104.822C140.652 104.75 140.746 104.695 140.812 104.657C140.845 104.638 140.87 104.623 140.888 104.613C140.898 104.608 140.905 104.604 140.91 104.601C140.912 104.6 140.915 104.598 140.916 104.598C140.917 104.597 140.918 104.597 140.918 104.596C140.918 104.596 140.919 104.596 140.919 104.596C140.919 104.596 140.919 104.596 141.404 105.47C141.89 106.345 141.89 106.345 141.89 106.344C141.89 106.344 141.89 106.344 141.89 106.344C141.89 106.344 141.89 106.344 141.89 106.345C141.889 106.345 141.889 106.345 141.887 106.346C141.884 106.348 141.88 106.35 141.873 106.354C141.86 106.361 141.839 106.373 141.812 106.389C141.757 106.421 141.673 106.47 141.566 106.534C141.352 106.663 141.043 106.856 140.67 107.105C139.922 107.604 138.93 108.324 137.943 109.208C135.907 111.029 134.147 113.322 134.147 115.67H132.147ZM141.404 105.47C141.89 104.596 141.89 104.596 141.89 104.596C141.89 104.596 141.891 104.596 141.891 104.596C141.891 104.597 141.892 104.597 141.893 104.598C141.894 104.598 141.897 104.6 141.899 104.601C141.904 104.604 141.911 104.608 141.921 104.613C141.939 104.623 141.964 104.638 141.997 104.657C142.063 104.695 142.157 104.75 142.276 104.822C142.513 104.965 142.849 105.174 143.25 105.442C144.051 105.977 145.123 106.754 146.2 107.718C148.293 109.591 150.662 112.399 150.662 115.67H148.662C148.662 113.322 146.902 111.029 144.866 109.208C143.879 108.324 142.887 107.604 142.139 107.105C141.766 106.856 141.457 106.663 141.243 106.534C141.136 106.47 141.052 106.421 140.997 106.389C140.97 106.373 140.949 106.361 140.936 106.354C140.929 106.35 140.925 106.348 140.922 106.346C140.92 106.345 140.92 106.345 140.919 106.345C140.919 106.344 140.919 106.344 140.919 106.344C140.919 106.344 140.919 106.344 140.919 106.344C140.919 106.345 140.919 106.345 141.404 105.47ZM150.662 115.67V133.989H148.662V115.67H150.662ZM149.662 132.989H151.743V134.989H149.662V132.989ZM150.743 133.989V122.539H152.743V133.989H150.743ZM150.743 122.539V121.708H152.743V122.539H150.743ZM150.743 121.708V116.918H152.743V121.708H150.743ZM150.743 116.918V116.086H152.743V116.918H150.743ZM150.743 116.086V103.318H152.743V116.086H150.743ZM151.743 104.318H130.788V102.318H151.743V104.318ZM131.788 103.318V116.085H129.788V103.318H131.788ZM131.788 116.085V116.918H129.788V116.085H131.788ZM131.788 116.918V121.707H129.788V116.918H131.788ZM131.788 121.707V122.539H129.788V121.707H131.788ZM131.788 122.539L131.788 133.989L129.788 133.989L129.788 122.539L131.788 122.539Z" fill="black" mask="url(#path-2-inside-1_0_18)"/>
<mask id="path-4-inside-2_0_18" fill="white">
<path fill-rule="evenodd" clip-rule="evenodd" d="M13.2435 22.5517L14.354 32.959L51.1985 28.9351L50.0895 18.527L13.2435 22.5517ZM42.5955 117.544C23.3747 117.544 6.79041 125.177 0.0612769 136H85.2697C78.3997 125.177 61.8858 117.544 42.5955 117.544ZM58.9702 89.4418L19.8357 93.7449L20.043 96.1037L59.2486 91.8014L58.9702 89.4418ZM43.8445 2.08116L15.6727 5.13445L15.4646 3.05408L43.6372 0L43.8445 2.08116ZM50.852 14.9873L11.6472 19.22L11.9249 21.6484L51.0601 17.3461L50.852 14.9873ZM52.4483 29.8361L13.3131 34.1392L13.5211 36.5692L52.7267 32.2661L52.4483 29.8361ZM54.0445 44.7553L14.9086 49.0576L15.1862 51.4164L54.3214 47.1853L54.0445 44.7553ZM55.7096 59.6057L16.5056 63.9065L16.8521 66.3349L55.9873 62.0341L55.7096 59.6057ZM57.3059 74.5226L18.1707 78.8257L18.4483 81.2541L57.5827 76.9494L57.3059 74.5226ZM19.3501 17.6933L18.0314 5.76012L41.6929 3.19172L43.0115 15.1249L19.3501 17.6933ZM35.4479 9.0895L35.8655 13.3222L39.959 12.9069L39.5414 8.67342C39.4022 7.4948 38.3628 6.5915 37.253 6.72993C36.1424 6.86914 35.3087 7.91011 35.4479 9.0895ZM21.3624 10.6865L21.8481 14.9177L25.9416 14.432L25.4567 10.2009C25.3159 9.01989 24.2765 8.18774 23.1667 8.32617C22.0561 8.39578 21.2232 9.43518 21.3624 10.6865ZM28.3707 9.92165L28.8556 14.1551L32.9491 13.6694L32.4642 9.43597C32.3946 8.25735 31.3544 7.35403 30.1742 7.56441C29.0637 7.63402 28.3011 8.67343 28.3707 9.92165ZM46.2737 21.0266L47.0354 27.8934L49.4646 27.6165L48.7021 20.7474C48.6317 20.1921 48.0772 19.776 47.3834 19.8441C46.6889 19.9137 46.204 20.4009 46.2737 21.0266ZM22.4722 84.5147L23.3051 91.3853L25.6647 91.1069L24.9014 84.2378C24.8318 83.6817 24.2773 83.2672 23.5828 83.3353C22.9587 83.4745 22.4722 83.9609 22.4722 84.5147ZM25.8727 84.0978L26.6353 91.0389L29.0629 90.7597L28.3003 83.8913C28.2315 83.3353 27.6755 82.92 26.9825 82.9896C26.2896 83.0584 25.8031 83.6145 25.8727 84.0978ZM29.2725 83.8209L30.0358 90.6228L32.3954 90.4132L31.7009 83.4745C31.6313 82.9192 31.008 82.5711 30.3135 82.6415C29.6893 82.7119 29.2037 83.1984 29.2725 83.8209ZM32.6027 83.4049L33.3675 90.2716L35.7952 89.9948L35.0318 83.128C34.9622 82.5704 34.4069 82.2239 33.714 82.2239C33.0195 82.3639 32.5346 82.8511 32.6027 83.4049ZM36.004 82.9888L36.7665 89.926L39.1261 89.6491L38.4332 82.7815C38.3636 82.2247 37.7387 81.8086 37.1138 81.8782C36.4201 81.9478 35.9344 82.5008 36.004 82.9888ZM39.3341 82.7119L40.0975 89.5099L42.5266 89.3018L41.8321 82.3631C41.7625 81.8078 41.1392 81.4621 40.4439 81.531C39.751 81.6006 39.2645 82.0855 39.3341 82.7119ZM42.7347 82.2943L43.4964 89.1634L45.9256 88.8865L45.1631 82.0855C45.0943 81.4621 44.4694 81.1149 43.8453 81.1149C43.15 81.2541 42.6651 81.739 42.7347 82.2943ZM46.1344 81.9478L46.8282 88.8162L49.3262 88.5401L48.5621 81.6686C48.4925 81.1149 47.8683 80.6996 47.1746 80.7692C46.5505 80.838 46.0641 81.3918 46.1344 81.9478ZM49.4646 81.6006L50.2279 88.4705L52.6571 88.1936L51.8938 81.3229C51.8242 80.7692 51.1993 80.3531 50.5752 80.4235C49.9495 80.4923 49.395 80.9765 49.4646 81.6006ZM52.8651 81.1853L53.5581 88.0536L56.0553 87.7752L55.2928 80.9765C55.2239 80.3524 54.6679 80.0059 53.9749 80.0059C53.2812 80.1459 52.7955 80.6292 52.8651 81.1853ZM20.8767 69.4578L21.5712 76.3269L24.0684 76.0501L23.3059 69.1786C23.2363 68.6256 22.681 68.2784 21.9873 68.2784C21.2928 68.4168 20.8079 68.9017 20.8767 69.4578ZM24.2076 69.1113L25.0398 75.9796L27.3994 75.7028L26.6361 68.8321C26.5664 68.2784 26.0119 67.8631 25.3167 67.9327C24.6933 68 24.2076 68.5552 24.2076 69.1113ZM27.6074 68.7625L28.3707 75.634L30.7999 75.3563L30.0358 68.416C29.967 67.9319 29.4125 67.5158 28.718 67.5855C28.0243 67.6543 27.5378 68.1399 27.6074 68.7625ZM30.9384 68.3488L31.7697 75.2171L34.1293 75.0106L33.4364 68.1399C33.2979 67.5158 32.7426 67.1694 32.0489 67.1694C31.4232 67.307 30.9384 67.7927 30.9384 68.3488ZM34.3373 68L35.1022 74.8707L37.5298 74.5906L36.7657 67.7231C36.6961 67.1694 36.1416 66.7517 35.4471 66.8198C34.7542 66.8886 34.2685 67.4462 34.3373 68ZM37.7379 67.6543L38.5012 74.5226L40.86 74.2442L40.1671 67.307C40.0975 66.8198 39.4718 66.4037 38.8484 66.4741C38.1539 66.5429 37.6683 67.0286 37.7379 67.6543ZM41.0688 67.239L41.8321 74.1066L44.2613 73.8977L43.4964 67.0286C43.4964 66.4029 42.8739 66.0564 42.1786 66.0564C41.4849 66.1964 41.0008 66.6821 41.0688 67.239ZM44.4694 66.8886L45.2327 73.7593L47.5923 73.4817L46.8978 66.6117C46.8289 66.0564 46.2048 65.6404 45.5799 65.7804C44.8854 65.7796 44.399 66.3349 44.4694 66.8886ZM47.8683 66.5429L48.5621 73.4136L51.0601 73.1352L50.2975 66.1965C50.2279 65.7108 49.603 65.2947 48.9101 65.3643C48.2844 65.4339 47.7307 65.9196 47.8683 66.5429ZM51.1993 66.126L51.9626 72.9983L54.3918 72.7879L53.6285 65.9196C53.5589 65.2939 52.934 64.9482 52.3091 64.9482C51.6858 65.0867 51.1289 65.5723 51.1993 66.126ZM19.2116 54.4009L19.9742 61.27L22.4026 61.0612L21.64 54.124C21.5712 53.5664 21.0159 53.2199 20.3222 53.2895C19.6965 53.3599 19.142 53.8456 19.2116 54.4009ZM22.6106 54.0521L23.3059 60.9228L25.8031 60.6451L25.0398 53.7752C24.9702 53.2199 24.3469 52.8039 23.7212 52.8742C23.0283 52.9431 22.5426 53.4968 22.6106 54.0521ZM25.9416 53.7064L26.7041 60.5755L29.1333 60.2987L28.3707 53.4295C28.3011 52.8743 27.7458 52.4582 27.0529 52.5278C26.4272 52.5974 25.9416 53.0831 25.9416 53.7064ZM29.3421 53.2895L30.1046 60.1602L32.5338 59.9514L31.7689 53.0831C31.7001 52.4574 31.1456 52.1117 30.4511 52.1805C29.759 52.2501 29.2725 52.7343 29.3421 53.2895ZM32.673 52.9431L33.5068 59.8122L35.8663 59.5354L35.171 52.6654C35.0326 52.1109 34.4773 51.6941 33.7836 51.7637C33.1595 51.8341 32.673 52.3878 32.673 52.9431ZM36.0736 52.5974L36.8361 59.4657L39.2645 59.1873L38.502 52.3205C38.4332 51.7645 37.8771 51.3468 37.1842 51.4172C36.4889 51.486 36.004 52.0413 36.0736 52.5974ZM39.4726 52.2502L40.2367 59.0481L42.5962 58.8409L41.9025 51.9733C41.8329 51.346 41.2088 51.0004 40.5143 51.07C39.8894 51.1372 39.403 51.6253 39.4726 52.2502ZM42.8035 51.8341L43.5668 58.7009L45.9952 58.424L45.2327 51.5572C45.2327 50.9996 44.6078 50.5827 43.9141 50.7227C43.2196 50.7908 42.7347 51.2764 42.8035 51.8341ZM46.2041 51.486L46.9666 58.3552L49.3262 58.0783L48.6309 51.2076C48.5621 50.6539 47.938 50.2378 47.3131 50.3074C46.6201 50.3747 46.1344 50.9307 46.2041 51.486ZM49.5342 51.1372L50.2975 57.9391L52.7955 57.7319L52.0322 50.8604C51.9626 50.237 51.3393 49.8914 50.6448 49.961C49.9495 50.0282 49.4646 50.5147 49.5342 51.1372ZM17.6162 39.4129L18.3091 46.2108L20.7383 46.0036L19.975 39.0664C19.975 38.5087 19.3508 38.1631 18.7259 38.2303C18.0322 38.3007 17.477 38.7887 17.6162 39.4129ZM20.9463 38.9976L21.7096 45.8643L24.1388 45.5883L23.3739 38.7887C23.3051 38.1639 22.7498 37.8174 22.0553 37.8174C21.4312 37.9542 20.8767 38.4399 20.9463 38.9976ZM24.3469 38.5815L25.0398 45.5186L27.5378 45.241L26.7049 38.3703C26.7049 37.8166 26.0816 37.4005 25.4574 37.5382C24.7622 37.5382 24.2773 38.0942 24.3469 38.5815ZM27.6762 38.3007L28.4411 45.1722L30.8687 44.8953L30.1054 37.9542C30.0358 37.4686 29.4813 37.0548 28.7876 37.1229C28.1627 37.1917 27.6762 37.6782 27.6762 38.3007ZM31.0768 37.8846L31.8393 44.7553L34.2685 44.4793L33.506 37.6782C33.4364 37.0548 32.8811 36.7076 32.1874 36.7076C31.4929 36.8452 31.008 37.3309 31.0768 37.8846ZM34.4069 37.5382L35.2399 44.4096L37.5994 44.132L36.905 37.2605C36.7665 36.7068 36.212 36.2915 35.5167 36.4292C34.8934 36.4292 34.4069 36.9845 34.4069 37.5382ZM37.8083 37.1917L38.5716 44.0632L41.0008 43.784L40.2359 36.9148C40.1671 36.3596 39.611 35.945 38.9173 36.0131C38.2228 36.0827 37.7379 36.5692 37.8083 37.1917ZM41.2072 36.7748L41.9698 43.644L44.3294 43.3663L43.6364 36.5692C43.4957 35.945 42.9412 35.5947 42.2474 35.5947C41.6233 35.7339 41.1384 36.2211 41.2072 36.7748ZM44.5374 36.4292L45.3015 43.296L47.7307 43.0199L46.9666 36.1515C46.897 35.5939 46.3425 35.1786 45.648 35.3178C44.955 35.3178 44.4694 35.8715 44.5374 36.4292ZM47.9387 36.0827L48.7021 42.9503L51.0609 42.6734L50.3679 35.8043C50.2983 35.249 49.6726 34.8329 49.0485 34.9033C48.3548 34.9721 47.8683 35.4578 47.9387 36.0827ZM15.9495 24.3552L16.7144 31.2267L19.142 30.9483L18.3787 24.0095C18.3091 23.5238 17.6858 23.1078 16.9913 23.1766C16.3672 23.2462 15.8807 23.7326 15.9495 24.3552ZM19.3501 23.9383L20.043 30.8098L22.4722 30.5986L21.7096 23.7319C21.7096 23.1062 21.0847 22.7574 20.4599 22.7574C19.7661 22.8974 19.2116 23.3846 19.3501 23.9383ZM22.6802 23.5927L23.4435 30.4602L25.8727 30.1833L25.1094 23.315C25.0398 22.7574 24.4853 22.3421 23.79 22.4813C23.0971 22.4813 22.6106 23.0389 22.6802 23.5927ZM26.0808 23.2462L26.7745 30.1137L29.2717 29.8369L28.4404 22.9662C28.4404 22.4125 27.8147 21.9964 27.1905 22.0668C26.496 22.1356 25.9416 22.6197 26.0808 23.2462ZM29.4125 22.8278L30.175 29.6969L32.6027 29.4896L31.8393 22.6189C31.7697 21.9948 31.2152 21.6484 30.5207 21.6484C29.8966 21.7884 29.4125 22.2725 29.4125 22.8278ZM32.8115 22.4813L33.5748 29.3504L36.004 29.0743L35.2406 22.2029C35.171 21.6492 34.6166 21.2331 33.9221 21.3723C33.2283 21.3723 32.7426 21.926 32.8115 22.4813ZM36.1424 22.1356L36.905 29.0047L39.3341 28.7279L38.5716 21.8572C38.502 21.3035 37.9467 20.8874 37.253 20.957C36.6281 21.0266 36.1424 21.5099 36.1424 22.1356ZM39.5414 21.718L40.3055 28.5871L42.7347 28.3806L41.9698 21.5092C41.901 20.8858 41.3465 20.5401 40.6512 20.609C39.959 20.6794 39.4726 21.1635 39.5414 21.718ZM42.8731 21.3723L43.706 28.2414L46.0633 27.9638L45.3703 21.0939C45.2319 20.5409 44.6758 20.1225 43.9829 20.2601C43.358 20.2594 42.8731 20.817 42.8731 21.3723ZM14.8397 37.4686L15.9495 47.8086L52.7955 43.784L51.6857 33.4455L14.8397 37.4686ZM16.436 52.3878L17.6162 62.7278L54.4614 58.7016L53.282 48.3639L16.436 52.3878ZM18.1011 67.307L19.2116 77.6471L56.0553 73.6216L54.9455 63.2824L18.1011 67.307ZM19.6965 82.1543L20.8759 92.5647L57.6516 88.5401L56.5426 78.132L19.6965 82.1543ZM21.3624 97.0743L23.722 119.002C24.2772 118.86 24.8318 118.723 25.4574 118.515L23.6524 102.486C23.5139 100.892 24.9022 99.5035 26.8457 99.2266C28.7876 99.017 30.4527 100.126 30.5927 101.793L32.257 117.198C32.8811 117.127 33.4364 117.058 34.0612 116.988L32.3962 101.585C32.2577 99.9884 33.6452 98.5329 35.5183 98.3233C37.3922 98.1129 39.1269 99.2259 39.2653 100.822L41.0016 116.504C41.5561 116.434 42.1106 116.434 42.5962 116.434H42.8043L41.0696 100.612C40.9312 99.017 42.3194 97.56 44.1917 97.3504C46.1352 97.1423 47.8003 98.2537 48.0083 99.8484L49.8118 116.781C50.4367 116.85 51.0608 116.918 51.6857 116.988L49.8118 99.6411C49.6038 98.1129 51.0608 96.5878 52.9347 96.3798C54.8079 96.1725 56.5441 97.2815 56.6825 98.9458L58.8325 118.306C59.527 118.443 60.2903 118.652 60.9841 118.86L58.2084 93.0504L21.3624 97.0743Z"/>
</mask>
<path fill-rule="evenodd" clip-rule="evenodd" d="M13.2435 22.5517L14.354 32.959L51.1985 28.9351L50.0895 18.527L13.2435 22.5517ZM42.5955 117.544C23.3747 117.544 6.79041 125.177 0.0612769 136H85.2697C78.3997 125.177 61.8858 117.544 42.5955 117.544ZM58.9702 89.4418L19.8357 93.7449L20.043 96.1037L59.2486 91.8014L58.9702 89.4418ZM43.8445 2.08116L15.6727 5.13445L15.4646 3.05408L43.6372 0L43.8445 2.08116ZM50.852 14.9873L11.6472 19.22L11.9249 21.6484L51.0601 17.3461L50.852 14.9873ZM52.4483 29.8361L13.3131 34.1392L13.5211 36.5692L52.7267 32.2661L52.4483 29.8361ZM54.0445 44.7553L14.9086 49.0576L15.1862 51.4164L54.3214 47.1853L54.0445 44.7553ZM55.7096 59.6057L16.5056 63.9065L16.8521 66.3349L55.9873 62.0341L55.7096 59.6057ZM57.3059 74.5226L18.1707 78.8257L18.4483 81.2541L57.5827 76.9494L57.3059 74.5226ZM19.3501 17.6933L18.0314 5.76012L41.6929 3.19172L43.0115 15.1249L19.3501 17.6933ZM35.4479 9.0895L35.8655 13.3222L39.959 12.9069L39.5414 8.67342C39.4022 7.4948 38.3628 6.5915 37.253 6.72993C36.1424 6.86914 35.3087 7.91011 35.4479 9.0895ZM21.3624 10.6865L21.8481 14.9177L25.9416 14.432L25.4567 10.2009C25.3159 9.01989 24.2765 8.18774 23.1667 8.32617C22.0561 8.39578 21.2232 9.43518 21.3624 10.6865ZM28.3707 9.92165L28.8556 14.1551L32.9491 13.6694L32.4642 9.43597C32.3946 8.25735 31.3544 7.35403 30.1742 7.56441C29.0637 7.63402 28.3011 8.67343 28.3707 9.92165ZM46.2737 21.0266L47.0354 27.8934L49.4646 27.6165L48.7021 20.7474C48.6317 20.1921 48.0772 19.776 47.3834 19.8441C46.6889 19.9137 46.204 20.4009 46.2737 21.0266ZM22.4722 84.5147L23.3051 91.3853L25.6647 91.1069L24.9014 84.2378C24.8318 83.6817 24.2773 83.2672 23.5828 83.3353C22.9587 83.4745 22.4722 83.9609 22.4722 84.5147ZM25.8727 84.0978L26.6353 91.0389L29.0629 90.7597L28.3003 83.8913C28.2315 83.3353 27.6755 82.92 26.9825 82.9896C26.2896 83.0584 25.8031 83.6145 25.8727 84.0978ZM29.2725 83.8209L30.0358 90.6228L32.3954 90.4132L31.7009 83.4745C31.6313 82.9192 31.008 82.5711 30.3135 82.6415C29.6893 82.7119 29.2037 83.1984 29.2725 83.8209ZM32.6027 83.4049L33.3675 90.2716L35.7952 89.9948L35.0318 83.128C34.9622 82.5704 34.4069 82.2239 33.714 82.2239C33.0195 82.3639 32.5346 82.8511 32.6027 83.4049ZM36.004 82.9888L36.7665 89.926L39.1261 89.6491L38.4332 82.7815C38.3636 82.2247 37.7387 81.8086 37.1138 81.8782C36.4201 81.9478 35.9344 82.5008 36.004 82.9888ZM39.3341 82.7119L40.0975 89.5099L42.5266 89.3018L41.8321 82.3631C41.7625 81.8078 41.1392 81.4621 40.4439 81.531C39.751 81.6006 39.2645 82.0855 39.3341 82.7119ZM42.7347 82.2943L43.4964 89.1634L45.9256 88.8865L45.1631 82.0855C45.0943 81.4621 44.4694 81.1149 43.8453 81.1149C43.15 81.2541 42.6651 81.739 42.7347 82.2943ZM46.1344 81.9478L46.8282 88.8162L49.3262 88.5401L48.5621 81.6686C48.4925 81.1149 47.8683 80.6996 47.1746 80.7692C46.5505 80.838 46.0641 81.3918 46.1344 81.9478ZM49.4646 81.6006L50.2279 88.4705L52.6571 88.1936L51.8938 81.3229C51.8242 80.7692 51.1993 80.3531 50.5752 80.4235C49.9495 80.4923 49.395 80.9765 49.4646 81.6006ZM52.8651 81.1853L53.5581 88.0536L56.0553 87.7752L55.2928 80.9765C55.2239 80.3524 54.6679 80.0059 53.9749 80.0059C53.2812 80.1459 52.7955 80.6292 52.8651 81.1853ZM20.8767 69.4578L21.5712 76.3269L24.0684 76.0501L23.3059 69.1786C23.2363 68.6256 22.681 68.2784 21.9873 68.2784C21.2928 68.4168 20.8079 68.9017 20.8767 69.4578ZM24.2076 69.1113L25.0398 75.9796L27.3994 75.7028L26.6361 68.8321C26.5664 68.2784 26.0119 67.8631 25.3167 67.9327C24.6933 68 24.2076 68.5552 24.2076 69.1113ZM27.6074 68.7625L28.3707 75.634L30.7999 75.3563L30.0358 68.416C29.967 67.9319 29.4125 67.5158 28.718 67.5855C28.0243 67.6543 27.5378 68.1399 27.6074 68.7625ZM30.9384 68.3488L31.7697 75.2171L34.1293 75.0106L33.4364 68.1399C33.2979 67.5158 32.7426 67.1694 32.0489 67.1694C31.4232 67.307 30.9384 67.7927 30.9384 68.3488ZM34.3373 68L35.1022 74.8707L37.5298 74.5906L36.7657 67.7231C36.6961 67.1694 36.1416 66.7517 35.4471 66.8198C34.7542 66.8886 34.2685 67.4462 34.3373 68ZM37.7379 67.6543L38.5012 74.5226L40.86 74.2442L40.1671 67.307C40.0975 66.8198 39.4718 66.4037 38.8484 66.4741C38.1539 66.5429 37.6683 67.0286 37.7379 67.6543ZM41.0688 67.239L41.8321 74.1066L44.2613 73.8977L43.4964 67.0286C43.4964 66.4029 42.8739 66.0564 42.1786 66.0564C41.4849 66.1964 41.0008 66.6821 41.0688 67.239ZM44.4694 66.8886L45.2327 73.7593L47.5923 73.4817L46.8978 66.6117C46.8289 66.0564 46.2048 65.6404 45.5799 65.7804C44.8854 65.7796 44.399 66.3349 44.4694 66.8886ZM47.8683 66.5429L48.5621 73.4136L51.0601 73.1352L50.2975 66.1965C50.2279 65.7108 49.603 65.2947 48.9101 65.3643C48.2844 65.4339 47.7307 65.9196 47.8683 66.5429ZM51.1993 66.126L51.9626 72.9983L54.3918 72.7879L53.6285 65.9196C53.5589 65.2939 52.934 64.9482 52.3091 64.9482C51.6858 65.0867 51.1289 65.5723 51.1993 66.126ZM19.2116 54.4009L19.9742 61.27L22.4026 61.0612L21.64 54.124C21.5712 53.5664 21.0159 53.2199 20.3222 53.2895C19.6965 53.3599 19.142 53.8456 19.2116 54.4009ZM22.6106 54.0521L23.3059 60.9228L25.8031 60.6451L25.0398 53.7752C24.9702 53.2199 24.3469 52.8039 23.7212 52.8742C23.0283 52.9431 22.5426 53.4968 22.6106 54.0521ZM25.9416 53.7064L26.7041 60.5755L29.1333 60.2987L28.3707 53.4295C28.3011 52.8743 27.7458 52.4582 27.0529 52.5278C26.4272 52.5974 25.9416 53.0831 25.9416 53.7064ZM29.3421 53.2895L30.1046 60.1602L32.5338 59.9514L31.7689 53.0831C31.7001 52.4574 31.1456 52.1117 30.4511 52.1805C29.759 52.2501 29.2725 52.7343 29.3421 53.2895ZM32.673 52.9431L33.5068 59.8122L35.8663 59.5354L35.171 52.6654C35.0326 52.1109 34.4773 51.6941 33.7836 51.7637C33.1595 51.8341 32.673 52.3878 32.673 52.9431ZM36.0736 52.5974L36.8361 59.4657L39.2645 59.1873L38.502 52.3205C38.4332 51.7645 37.8771 51.3468 37.1842 51.4172C36.4889 51.486 36.004 52.0413 36.0736 52.5974ZM39.4726 52.2502L40.2367 59.0481L42.5962 58.8409L41.9025 51.9733C41.8329 51.346 41.2088 51.0004 40.5143 51.07C39.8894 51.1372 39.403 51.6253 39.4726 52.2502ZM42.8035 51.8341L43.5668 58.7009L45.9952 58.424L45.2327 51.5572C45.2327 50.9996 44.6078 50.5827 43.9141 50.7227C43.2196 50.7908 42.7347 51.2764 42.8035 51.8341ZM46.2041 51.486L46.9666 58.3552L49.3262 58.0783L48.6309 51.2076C48.5621 50.6539 47.938 50.2378 47.3131 50.3074C46.6201 50.3747 46.1344 50.9307 46.2041 51.486ZM49.5342 51.1372L50.2975 57.9391L52.7955 57.7319L52.0322 50.8604C51.9626 50.237 51.3393 49.8914 50.6448 49.961C49.9495 50.0282 49.4646 50.5147 49.5342 51.1372ZM17.6162 39.4129L18.3091 46.2108L20.7383 46.0036L19.975 39.0664C19.975 38.5087 19.3508 38.1631 18.7259 38.2303C18.0322 38.3007 17.477 38.7887 17.6162 39.4129ZM20.9463 38.9976L21.7096 45.8643L24.1388 45.5883L23.3739 38.7887C23.3051 38.1639 22.7498 37.8174 22.0553 37.8174C21.4312 37.9542 20.8767 38.4399 20.9463 38.9976ZM24.3469 38.5815L25.0398 45.5186L27.5378 45.241L26.7049 38.3703C26.7049 37.8166 26.0816 37.4005 25.4574 37.5382C24.7622 37.5382 24.2773 38.0942 24.3469 38.5815ZM27.6762 38.3007L28.4411 45.1722L30.8687 44.8953L30.1054 37.9542C30.0358 37.4686 29.4813 37.0548 28.7876 37.1229C28.1627 37.1917 27.6762 37.6782 27.6762 38.3007ZM31.0768 37.8846L31.8393 44.7553L34.2685 44.4793L33.506 37.6782C33.4364 37.0548 32.8811 36.7076 32.1874 36.7076C31.4929 36.8452 31.008 37.3309 31.0768 37.8846ZM34.4069 37.5382L35.2399 44.4096L37.5994 44.132L36.905 37.2605C36.7665 36.7068 36.212 36.2915 35.5167 36.4292C34.8934 36.4292 34.4069 36.9845 34.4069 37.5382ZM37.8083 37.1917L38.5716 44.0632L41.0008 43.784L40.2359 36.9148C40.1671 36.3596 39.611 35.945 38.9173 36.0131C38.2228 36.0827 37.7379 36.5692 37.8083 37.1917ZM41.2072 36.7748L41.9698 43.644L44.3294 43.3663L43.6364 36.5692C43.4957 35.945 42.9412 35.5947 42.2474 35.5947C41.6233 35.7339 41.1384 36.2211 41.2072 36.7748ZM44.5374 36.4292L45.3015 43.296L47.7307 43.0199L46.9666 36.1515C46.897 35.5939 46.3425 35.1786 45.648 35.3178C44.955 35.3178 44.4694 35.8715 44.5374 36.4292ZM47.9387 36.0827L48.7021 42.9503L51.0609 42.6734L50.3679 35.8043C50.2983 35.249 49.6726 34.8329 49.0485 34.9033C48.3548 34.9721 47.8683 35.4578 47.9387 36.0827ZM15.9495 24.3552L16.7144 31.2267L19.142 30.9483L18.3787 24.0095C18.3091 23.5238 17.6858 23.1078 16.9913 23.1766C16.3672 23.2462 15.8807 23.7326 15.9495 24.3552ZM19.3501 23.9383L20.043 30.8098L22.4722 30.5986L21.7096 23.7319C21.7096 23.1062 21.0847 22.7574 20.4599 22.7574C19.7661 22.8974 19.2116 23.3846 19.3501 23.9383ZM22.6802 23.5927L23.4435 30.4602L25.8727 30.1833L25.1094 23.315C25.0398 22.7574 24.4853 22.3421 23.79 22.4813C23.0971 22.4813 22.6106 23.0389 22.6802 23.5927ZM26.0808 23.2462L26.7745 30.1137L29.2717 29.8369L28.4404 22.9662C28.4404 22.4125 27.8147 21.9964 27.1905 22.0668C26.496 22.1356 25.9416 22.6197 26.0808 23.2462ZM29.4125 22.8278L30.175 29.6969L32.6027 29.4896L31.8393 22.6189C31.7697 21.9948 31.2152 21.6484 30.5207 21.6484C29.8966 21.7884 29.4125 22.2725 29.4125 22.8278ZM32.8115 22.4813L33.5748 29.3504L36.004 29.0743L35.2406 22.2029C35.171 21.6492 34.6166 21.2331 33.9221 21.3723C33.2283 21.3723 32.7426 21.926 32.8115 22.4813ZM36.1424 22.1356L36.905 29.0047L39.3341 28.7279L38.5716 21.8572C38.502 21.3035 37.9467 20.8874 37.253 20.957C36.6281 21.0266 36.1424 21.5099 36.1424 22.1356ZM39.5414 21.718L40.3055 28.5871L42.7347 28.3806L41.9698 21.5092C41.901 20.8858 41.3465 20.5401 40.6512 20.609C39.959 20.6794 39.4726 21.1635 39.5414 21.718ZM42.8731 21.3723L43.706 28.2414L46.0633 27.9638L45.3703 21.0939C45.2319 20.5409 44.6758 20.1225 43.9829 20.2601C43.358 20.2594 42.8731 20.817 42.8731 21.3723ZM14.8397 37.4686L15.9495 47.8086L52.7955 43.784L51.6857 33.4455L14.8397 37.4686ZM16.436 52.3878L17.6162 62.7278L54.4614 58.7016L53.282 48.3639L16.436 52.3878ZM18.1011 67.307L19.2116 77.6471L56.0553 73.6216L54.9455 63.2824L18.1011 67.307ZM19.6965 82.1543L20.8759 92.5647L57.6516 88.5401L56.5426 78.132L19.6965 82.1543ZM21.3624 97.0743L23.722 119.002C24.2772 118.86 24.8318 118.723 25.4574 118.515L23.6524 102.486C23.5139 100.892 24.9022 99.5035 26.8457 99.2266C28.7876 99.017 30.4527 100.126 30.5927 101.793L32.257 117.198C32.8811 117.127 33.4364 117.058 34.0612 116.988L32.3962 101.585C32.2577 99.9884 33.6452 98.5329 35.5183 98.3233C37.3922 98.1129 39.1269 99.2259 39.2653 100.822L41.0016 116.504C41.5561 116.434 42.1106 116.434 42.5962 116.434H42.8043L41.0696 100.612C40.9312 99.017 42.3194 97.56 44.1917 97.3504C46.1352 97.1423 47.8003 98.2537 48.0083 99.8484L49.8118 116.781C50.4367 116.85 51.0608 116.918 51.6857 116.988L49.8118 99.6411C49.6038 98.1129 51.0608 96.5878 52.9347 96.3798C54.8079 96.1725 56.5441 97.2815 56.6825 98.9458L58.8325 118.306C59.527 118.443 60.2903 118.652 60.9841 118.86L58.2084 93.0504L21.3624 97.0743Z" fill="#009EE2" stroke="black" stroke-width="2" mask="url(#path-4-inside-2_0_18)"/>
</svg>
